<svg width="30" height="30" viewBox="0 0 30 30" fill="none" xmlns="http://www.w3.org/2000/svg">
<path d="M25.1562 5.625H4.84375C3.54932 5.625 2.5 6.67432 2.5 7.96875V22.0312C2.5 23.3257 3.54932 24.375 4.84375 24.375H25.1562C26.4507 24.375 27.5 23.3257 27.5 22.0312V7.96875C27.5 6.67432 26.4507 5.625 25.1562 5.625ZM25.1562 7.96875V9.96118C24.0614 10.8527 22.316 12.2391 18.5846 15.1609C17.7623 15.8077 16.1334 17.3617 15 17.3436C13.8668 17.3619 12.2374 15.8075 11.4154 15.1609C7.68457 12.2395 5.93872 10.8529 4.84375 9.96118V7.96875H25.1562ZM4.84375 22.0312V12.9687C5.9626 13.8598 7.54927 15.1104 9.96768 17.0041C11.0349 17.8442 12.9039 19.6987 15 19.6875C17.0858 19.6987 18.9311 17.8711 20.0319 17.0045C22.4502 15.1108 24.0374 13.8599 25.1562 12.9687V22.0312H4.84375Z" fill="black"/>
</svg>
