<svg width="30" height="30" viewBox="0 0 30 30" fill="none" xmlns="http://www.w3.org/2000/svg">
<path d="M24.8214 2.5H5.17857C3.69978 2.5 2.5 3.69978 2.5 5.17857V24.8214C2.5 26.3002 3.69978 27.5 5.17857 27.5H24.8214C26.3002 27.5 27.5 26.3002 27.5 24.8214V5.17857C27.5 3.69978 26.3002 2.5 24.8214 2.5ZM17.9743 23.9118C17.5056 23.9955 17.3326 23.7054 17.3326 23.4654C17.3326 23.1641 17.3438 21.6239 17.3438 20.3795C17.3438 19.5089 17.0536 18.9565 16.7132 18.6663C18.7779 18.4375 20.9542 18.1529 20.9542 14.5871C20.9542 13.5714 20.5915 13.0636 20 12.4107C20.0949 12.1708 20.4129 11.183 19.9051 9.89955C19.1295 9.6596 17.3549 10.8984 17.3549 10.8984C16.6183 10.692 15.8203 10.5859 15.0335 10.5859C14.2467 10.5859 13.4487 10.692 12.7121 10.8984C12.7121 10.8984 10.9375 9.6596 10.1618 9.89955C9.65402 11.1775 9.96652 12.1652 10.067 12.4107C9.47545 13.0636 9.19643 13.5714 9.19643 14.5871C9.19643 18.1362 11.2779 18.4375 13.3426 18.6663C13.0748 18.9063 12.8348 19.3192 12.7511 19.9107C12.221 20.1507 10.865 20.5636 10.0558 19.135C9.54799 18.2533 8.63281 18.1808 8.63281 18.1808C7.72879 18.1696 8.57143 18.75 8.57143 18.75C9.17411 19.029 9.59821 20.1004 9.59821 20.1004C10.1395 21.7578 12.7288 21.1998 12.7288 21.1998C12.7288 21.9754 12.74 23.2366 12.74 23.4654C12.74 23.7054 12.5725 23.9955 12.0982 23.9118C8.41518 22.6786 5.83705 19.1741 5.83705 15.0781C5.83705 9.95536 9.75446 6.06585 14.8772 6.06585C20 6.06585 24.1518 9.95536 24.1518 15.0781C24.1574 19.1741 21.6574 22.6842 17.9743 23.9118ZM12.5 20.5022C12.394 20.5246 12.2935 20.4799 12.2824 20.4074C12.2712 20.3237 12.3438 20.2511 12.4498 20.2288C12.5558 20.2176 12.6563 20.2623 12.6674 20.3348C12.6842 20.4074 12.6116 20.4799 12.5 20.5022ZM11.9699 20.452C11.9699 20.5246 11.8862 20.5859 11.7746 20.5859C11.6518 20.5971 11.5681 20.5357 11.5681 20.452C11.5681 20.3795 11.6518 20.3181 11.7634 20.3181C11.8694 20.3069 11.9699 20.3683 11.9699 20.452ZM11.2054 20.3906C11.183 20.4632 11.0714 20.4967 10.9766 20.4632C10.8705 20.4408 10.798 20.3571 10.8203 20.2846C10.8426 20.2121 10.9542 20.1786 11.0491 20.2009C11.1607 20.2344 11.2333 20.3181 11.2054 20.3906ZM10.519 20.0893C10.4688 20.1507 10.3627 20.1395 10.279 20.0558C10.1953 19.9833 10.173 19.8772 10.2288 19.827C10.279 19.7656 10.385 19.7768 10.4688 19.8605C10.5413 19.933 10.5692 20.0446 10.519 20.0893ZM10.0112 19.5815C9.96094 19.615 9.86607 19.5815 9.80469 19.4978C9.7433 19.4141 9.7433 19.3192 9.80469 19.2801C9.86607 19.2299 9.96094 19.269 10.0112 19.3527C10.0725 19.4364 10.0725 19.5368 10.0112 19.5815V19.5815ZM9.64844 19.0402C9.59822 19.0904 9.51451 19.0625 9.45313 19.0067C9.39174 18.9342 9.38058 18.8504 9.4308 18.8114C9.48103 18.7612 9.56473 18.7891 9.62612 18.8449C9.6875 18.9174 9.69866 19.0011 9.64844 19.0402ZM9.27455 18.6272C9.25223 18.6775 9.17969 18.6886 9.1183 18.6496C9.04576 18.6161 9.01228 18.5547 9.0346 18.5045C9.05692 18.471 9.1183 18.4542 9.19085 18.4821C9.26339 18.5212 9.29688 18.5826 9.27455 18.6272Z" fill="black"/>
</svg>
