<svg width="15" height="15" viewBox="0 0 15 15" fill="none" xmlns="http://www.w3.org/2000/svg">
<circle cx="7.5" cy="7.5" r="7.5" fill="#4E6297"/>
<path d="M10.875 5.18199C10.875 4.62047 10.3795 4.125 9.81801 4.125H5.55699C4.99547 4.125 4.5 4.62047 4.5 5.18199V9.443C4.5 10.0045 4.99547 10.5 5.55699 10.5H7.70401V8.08873H6.91127V7.03174H7.70401V6.60233C7.70401 5.87565 8.23251 5.24805 8.89314 5.24805H9.75195V6.30505H8.89314C8.79404 6.30505 8.69495 6.40415 8.69495 6.60233V7.03174H9.75195V8.08873H8.69495V10.5H9.81801C10.3795 10.5 10.875 10.0045 10.875 9.443V5.18199Z" fill="white"/>
</svg>
