<svg width="771" height="110" viewBox="0 0 771 110" fill="none" xmlns="http://www.w3.org/2000/svg">
<g filter="url(#filter0_d)">
<g filter="url(#filter1_d)">
<path d="M38.3423 65.1318C38.3423 69.9658 36.5967 73.7744 33.1055 76.5576C29.6387 79.3408 24.8047 80.7324 18.6035 80.7324C12.8906 80.7324 7.83691 79.6582 3.44238 77.5098V66.9629C7.05566 68.5742 10.1074 69.7095 12.5977 70.3687C15.1123 71.0278 17.4072 71.3574 19.4824 71.3574C21.9727 71.3574 23.877 70.8813 25.1953 69.9292C26.5381 68.9771 27.2095 67.561 27.2095 65.6812C27.2095 64.6313 26.9165 63.7036 26.3306 62.8979C25.7446 62.0679 24.8779 61.2744 23.7305 60.5176C22.6074 59.7607 20.3003 58.5522 16.8091 56.8921C13.5376 55.354 11.084 53.877 9.44824 52.4609C7.8125 51.0449 6.50635 49.397 5.52979 47.5171C4.55322 45.6372 4.06494 43.4399 4.06494 40.9253C4.06494 36.189 5.66406 32.4658 8.8623 29.7559C12.085 27.0459 16.5283 25.6909 22.1924 25.6909C24.9756 25.6909 27.6245 26.0205 30.1392 26.6797C32.6782 27.3389 35.3271 28.2666 38.0859 29.4629L34.4238 38.2886C31.5674 37.1167 29.1992 36.2988 27.3193 35.835C25.4639 35.3711 23.6328 35.1392 21.8262 35.1392C19.6777 35.1392 18.0298 35.6396 16.8823 36.6406C15.7349 37.6416 15.1611 38.9478 15.1611 40.5591C15.1611 41.5601 15.3931 42.439 15.8569 43.1958C16.3208 43.9282 17.0532 44.6484 18.0542 45.3564C19.0796 46.04 21.4844 47.2852 25.2686 49.0918C30.2734 51.4844 33.7036 53.8892 35.5591 56.3062C37.4146 58.6987 38.3423 61.6406 38.3423 65.1318ZM56.0669 59.4556C56.0669 63.5083 56.7261 66.5723 58.0444 68.6475C59.3872 70.7227 61.5601 71.7603 64.563 71.7603C67.5415 71.7603 69.6777 70.7349 70.9717 68.6841C72.29 66.6089 72.9492 63.5327 72.9492 59.4556C72.9492 55.4028 72.29 52.3633 70.9717 50.3369C69.6533 48.3105 67.4927 47.2974 64.4897 47.2974C61.5112 47.2974 59.3628 48.3105 58.0444 50.3369C56.7261 52.3389 56.0669 55.3784 56.0669 59.4556ZM84.375 59.4556C84.375 66.1206 82.6172 71.333 79.1016 75.0928C75.5859 78.8525 70.6909 80.7324 64.4165 80.7324C60.4858 80.7324 57.019 79.8779 54.0161 78.1689C51.0132 76.4355 48.7061 73.9575 47.0947 70.7349C45.4834 67.5122 44.6777 63.7524 44.6777 59.4556C44.6777 52.7661 46.4233 47.5659 49.9146 43.855C53.4058 40.144 58.313 38.2886 64.6362 38.2886C68.5669 38.2886 72.0337 39.1431 75.0366 40.8521C78.0396 42.561 80.3467 45.0146 81.958 48.2129C83.5693 51.4111 84.375 55.1587 84.375 59.4556ZM116.235 47.4438H106.567V80H95.3979V47.4438H89.2456V42.0605L95.3979 39.0576V36.0547C95.3979 31.3916 96.5454 27.9858 98.8403 25.8374C101.135 23.689 104.81 22.6147 109.863 22.6147C113.721 22.6147 117.151 23.1885 120.154 24.3359L117.297 32.5391C115.051 31.8311 112.976 31.4771 111.072 31.4771C109.485 31.4771 108.337 31.9531 107.629 32.9053C106.921 33.833 106.567 35.0293 106.567 36.4941V39.0576H116.235V47.4438ZM139.929 71.8335C141.882 71.8335 144.226 71.4062 146.96 70.5518V78.8647C144.177 80.1099 140.759 80.7324 136.707 80.7324C132.239 80.7324 128.979 79.6094 126.929 77.3633C124.902 75.0928 123.889 71.6992 123.889 67.1826V47.4438H118.542V42.7197L124.695 38.9844L127.917 30.3418H135.059V39.0576H146.521V47.4438H135.059V67.1826C135.059 68.7695 135.498 69.9414 136.377 70.6982C137.28 71.4551 138.464 71.8335 139.929 71.8335ZM188.928 80L185.779 65.6812L181.531 47.5903H181.274L173.804 80H161.792L150.146 39.0576H161.279L166.003 57.1851C166.76 60.4321 167.529 64.9121 168.311 70.625H168.53C168.628 68.7695 169.055 65.8276 169.812 61.7993L170.398 58.6865L175.452 39.0576H187.756L192.554 58.6865C192.651 59.2236 192.798 60.0171 192.993 61.0669C193.213 62.1167 193.42 63.2397 193.616 64.436C193.811 65.6079 193.982 66.7676 194.128 67.915C194.299 69.0381 194.397 69.9414 194.421 70.625H194.641C194.861 68.8672 195.251 66.4624 195.813 63.4106C196.375 60.3345 196.777 58.2593 197.021 57.1851L201.929 39.0576H212.878L201.086 80H188.928ZM245.508 80L243.347 74.4336H243.054C241.174 76.8018 239.233 78.4497 237.231 79.3774C235.254 80.2808 232.666 80.7324 229.468 80.7324C225.537 80.7324 222.437 79.6094 220.166 77.3633C217.92 75.1172 216.797 71.9189 216.797 67.7686C216.797 63.4229 218.311 60.2246 221.338 58.1738C224.39 56.0986 228.979 54.9512 235.107 54.7314L242.212 54.5117V52.7173C242.212 48.5669 240.088 46.4917 235.84 46.4917C232.568 46.4917 228.723 47.4805 224.304 49.458L220.605 41.9141C225.317 39.4482 230.542 38.2153 236.279 38.2153C241.772 38.2153 245.984 39.4116 248.914 41.8042C251.843 44.1968 253.308 47.8345 253.308 52.7173V80H245.508ZM242.212 61.0303L237.891 61.1768C234.644 61.2744 232.227 61.8604 230.64 62.9346C229.053 64.0088 228.259 65.6445 228.259 67.8418C228.259 70.9912 230.066 72.5659 233.679 72.5659C236.267 72.5659 238.33 71.8213 239.868 70.332C241.431 68.8428 242.212 66.8652 242.212 64.3994V61.0303ZM287.695 38.2886C289.209 38.2886 290.466 38.3984 291.467 38.6182L290.625 49.0918C289.722 48.8477 288.623 48.7256 287.329 48.7256C283.765 48.7256 280.981 49.6411 278.979 51.4722C277.002 53.3032 276.013 55.8667 276.013 59.1626V80H264.844V39.0576H273.303L274.951 45.9424H275.5C276.77 43.6475 278.479 41.8042 280.627 40.4126C282.8 38.9966 285.156 38.2886 287.695 38.2886ZM315.857 46.2354C313.489 46.2354 311.633 46.9922 310.291 48.5059C308.948 49.9951 308.179 52.1191 307.983 54.8779H323.657C323.608 52.1191 322.888 49.9951 321.497 48.5059C320.105 46.9922 318.225 46.2354 315.857 46.2354ZM317.432 80.7324C310.84 80.7324 305.688 78.9136 301.978 75.2759C298.267 71.6382 296.411 66.4868 296.411 59.8218C296.411 52.9614 298.12 47.6636 301.538 43.9282C304.98 40.1685 309.729 38.2886 315.784 38.2886C321.57 38.2886 326.074 39.9365 329.297 43.2324C332.52 46.5283 334.131 51.0815 334.131 56.8921V62.312H307.727C307.849 65.4858 308.789 67.9639 310.547 69.7461C312.305 71.5283 314.771 72.4194 317.944 72.4194C320.41 72.4194 322.742 72.1631 324.939 71.6504C327.136 71.1377 329.431 70.3198 331.824 69.1968V77.8394C329.871 78.8159 327.783 79.5361 325.562 80C323.34 80.4883 320.63 80.7324 317.432 80.7324ZM407.996 52.7173C407.996 61.5308 405.481 68.2812 400.452 72.9688C395.447 77.6562 388.208 80 378.735 80H363.574V26.46H380.383C389.124 26.46 395.911 28.7671 400.745 33.3813C405.579 37.9956 407.996 44.4409 407.996 52.7173ZM396.204 53.0103C396.204 41.5112 391.125 35.7617 380.969 35.7617H374.927V70.625H379.797C390.735 70.625 396.204 64.7534 396.204 53.0103ZM435.168 46.2354C432.8 46.2354 430.945 46.9922 429.602 48.5059C428.259 49.9951 427.49 52.1191 427.295 54.8779H442.969C442.92 52.1191 442.2 49.9951 440.808 48.5059C439.417 46.9922 437.537 46.2354 435.168 46.2354ZM436.743 80.7324C430.151 80.7324 425 78.9136 421.289 75.2759C417.578 71.6382 415.723 66.4868 415.723 59.8218C415.723 52.9614 417.432 47.6636 420.85 43.9282C424.292 40.1685 429.041 38.2886 435.095 38.2886C440.881 38.2886 445.386 39.9365 448.608 43.2324C451.831 46.5283 453.442 51.0815 453.442 56.8921V62.312H427.039C427.161 65.4858 428.101 67.9639 429.858 69.7461C431.616 71.5283 434.082 72.4194 437.256 72.4194C439.722 72.4194 442.053 72.1631 444.25 71.6504C446.448 71.1377 448.743 70.3198 451.135 69.1968V77.8394C449.182 78.8159 447.095 79.5361 444.873 80C442.651 80.4883 439.941 80.7324 436.743 80.7324ZM472.266 80L456.665 39.0576H468.347L476.257 62.3853C477.136 65.3394 477.686 68.1348 477.905 70.7715H478.125C478.247 68.4277 478.796 65.6323 479.773 62.3853L487.646 39.0576H499.329L483.728 80H472.266ZM522.18 46.2354C519.812 46.2354 517.957 46.9922 516.614 48.5059C515.271 49.9951 514.502 52.1191 514.307 54.8779H529.98C529.932 52.1191 529.211 49.9951 527.82 48.5059C526.428 46.9922 524.548 46.2354 522.18 46.2354ZM523.755 80.7324C517.163 80.7324 512.012 78.9136 508.301 75.2759C504.59 71.6382 502.734 66.4868 502.734 59.8218C502.734 52.9614 504.443 47.6636 507.861 43.9282C511.304 40.1685 516.052 38.2886 522.107 38.2886C527.893 38.2886 532.397 39.9365 535.62 43.2324C538.843 46.5283 540.454 51.0815 540.454 56.8921V62.312H514.05C514.172 65.4858 515.112 67.9639 516.87 69.7461C518.628 71.5283 521.094 72.4194 524.268 72.4194C526.733 72.4194 529.065 72.1631 531.262 71.6504C533.459 71.1377 535.754 70.3198 538.147 69.1968V77.8394C536.194 78.8159 534.106 79.5361 531.885 80C529.663 80.4883 526.953 80.7324 523.755 80.7324ZM560.706 80H549.536V23.0176H560.706V80ZM581.36 59.4556C581.36 63.5083 582.019 66.5723 583.337 68.6475C584.68 70.7227 586.853 71.7603 589.856 71.7603C592.834 71.7603 594.971 70.7349 596.265 68.6841C597.583 66.6089 598.242 63.5327 598.242 59.4556C598.242 55.4028 597.583 52.3633 596.265 50.3369C594.946 48.3105 592.786 47.2974 589.783 47.2974C586.804 47.2974 584.656 48.3105 583.337 50.3369C582.019 52.3389 581.36 55.3784 581.36 59.4556ZM609.668 59.4556C609.668 66.1206 607.91 71.333 604.395 75.0928C600.879 78.8525 595.984 80.7324 589.709 80.7324C585.779 80.7324 582.312 79.8779 579.309 78.1689C576.306 76.4355 573.999 73.9575 572.388 70.7349C570.776 67.5122 569.971 63.7524 569.971 59.4556C569.971 52.7661 571.716 47.5659 575.208 43.855C578.699 40.144 583.606 38.2886 589.929 38.2886C593.86 38.2886 597.327 39.1431 600.33 40.8521C603.333 42.561 605.64 45.0146 607.251 48.2129C608.862 51.4111 609.668 55.1587 609.668 59.4556ZM641.382 80.7324C636.572 80.7324 632.8 78.9868 630.066 75.4956H629.48C629.871 78.9136 630.066 80.8911 630.066 81.4282V98.0176H618.896V39.0576H627.979L629.553 44.3677H630.066C632.678 40.3149 636.548 38.2886 641.675 38.2886C646.509 38.2886 650.293 40.1562 653.027 43.8916C655.762 47.627 657.129 52.8149 657.129 59.4556C657.129 63.8257 656.482 67.6221 655.188 70.8447C653.918 74.0674 652.1 76.521 649.731 78.2056C647.363 79.8901 644.58 80.7324 641.382 80.7324ZM638.086 47.2241C635.327 47.2241 633.313 48.0786 632.043 49.7876C630.774 51.4722 630.115 54.2676 630.066 58.1738V59.3823C630.066 63.7769 630.713 66.9263 632.007 68.8306C633.325 70.7349 635.4 71.687 638.232 71.687C643.237 71.687 645.74 67.561 645.74 59.3091C645.74 55.2808 645.117 52.2656 643.872 50.2637C642.651 48.2373 640.723 47.2241 638.086 47.2241ZM683.313 46.2354C680.945 46.2354 679.089 46.9922 677.747 48.5059C676.404 49.9951 675.635 52.1191 675.439 54.8779H691.113C691.064 52.1191 690.344 49.9951 688.953 48.5059C687.561 46.9922 685.681 46.2354 683.313 46.2354ZM684.888 80.7324C678.296 80.7324 673.145 78.9136 669.434 75.2759C665.723 71.6382 663.867 66.4868 663.867 59.8218C663.867 52.9614 665.576 47.6636 668.994 43.9282C672.437 40.1685 677.185 38.2886 683.24 38.2886C689.026 38.2886 693.53 39.9365 696.753 43.2324C699.976 46.5283 701.587 51.0815 701.587 56.8921V62.312H675.183C675.305 65.4858 676.245 67.9639 678.003 69.7461C679.761 71.5283 682.227 72.4194 685.4 72.4194C687.866 72.4194 690.198 72.1631 692.395 71.6504C694.592 71.1377 696.887 70.3198 699.28 69.1968V77.8394C697.327 78.8159 695.239 79.5361 693.018 80C690.796 80.4883 688.086 80.7324 684.888 80.7324ZM733.521 38.2886C735.034 38.2886 736.292 38.3984 737.292 38.6182L736.45 49.0918C735.547 48.8477 734.448 48.7256 733.154 48.7256C729.59 48.7256 726.807 49.6411 724.805 51.4722C722.827 53.3032 721.838 55.8667 721.838 59.1626V80H710.669V39.0576H719.128L720.776 45.9424H721.326C722.595 43.6475 724.304 41.8042 726.453 40.4126C728.625 38.9966 730.981 38.2886 733.521 38.2886Z" fill="url(#paint0_linear)"/>
<path d="M33.1055 76.5576L32.4821 75.7757L32.4794 75.7778L33.1055 76.5576ZM3.44238 77.5098H2.44238V78.134L3.00317 78.4081L3.44238 77.5098ZM3.44238 66.9629L3.84967 66.0496L2.44238 65.422V66.9629H3.44238ZM12.5977 70.3687L12.3418 71.3354L12.3441 71.336L12.5977 70.3687ZM25.1953 69.9292L24.6169 69.1134L24.6098 69.1185L25.1953 69.9292ZM26.3306 62.8979L25.5135 63.4747L25.5218 63.4861L26.3306 62.8979ZM23.7305 60.5176L23.1716 61.3469L23.1799 61.3524L23.7305 60.5176ZM16.8091 56.8921L17.2385 55.989L17.2346 55.9871L16.8091 56.8921ZM8.8623 29.7559L8.2187 28.9905L8.21584 28.9929L8.8623 29.7559ZM30.1392 26.6797L29.8856 27.647L29.8879 27.6476L30.1392 26.6797ZM38.0859 29.4629L39.0096 29.8461L39.3868 28.937L38.4838 28.5454L38.0859 29.4629ZM34.4238 38.2886L34.0443 39.2137L34.9657 39.5918L35.3475 38.6718L34.4238 38.2886ZM27.3193 35.835L27.0768 36.8051L27.0798 36.8058L27.3193 35.835ZM15.8569 43.1958L15.0043 43.7184L15.0082 43.7246L15.0121 43.7309L15.8569 43.1958ZM18.0542 45.3564L17.4767 46.1729L17.488 46.1808L17.4995 46.1885L18.0542 45.3564ZM25.2686 49.0918L25.6999 48.1896L25.6994 48.1894L25.2686 49.0918ZM35.5591 56.3062L34.7659 56.9151L34.7689 56.919L35.5591 56.3062ZM37.3423 65.1318C37.3423 69.6903 35.7136 73.1995 32.4821 75.7757L33.7288 77.3396C37.4797 74.3493 39.3423 70.2413 39.3423 65.1318H37.3423ZM32.4794 75.7778C29.2487 78.3715 24.6656 79.7324 18.6035 79.7324V81.7324C24.9438 81.7324 30.0286 80.3102 33.7315 77.3374L32.4794 75.7778ZM18.6035 79.7324C13.0174 79.7324 8.11819 78.6826 3.88159 76.6114L3.00317 78.4081C7.55564 80.6338 12.7639 81.7324 18.6035 81.7324V79.7324ZM4.44238 77.5098V66.9629H2.44238V77.5098H4.44238ZM3.0351 67.8762C6.67435 69.4991 9.78004 70.6573 12.3418 71.3354L12.8535 69.4019C10.4348 68.7617 7.43698 67.6493 3.84967 66.0496L3.0351 67.8762ZM12.3441 71.336C14.9217 72.0116 17.3033 72.3574 19.4824 72.3574V70.3574C17.5111 70.3574 15.303 70.044 12.8512 69.4013L12.3441 71.336ZM19.4824 72.3574C22.078 72.3574 24.2232 71.8648 25.7808 70.7399L24.6098 69.1185C23.5307 69.8979 21.8673 70.3574 19.4824 70.3574V72.3574ZM25.7737 70.7449C27.4215 69.5765 28.2095 67.8321 28.2095 65.6812H26.2095C26.2095 67.29 25.6547 68.3776 24.6169 69.1135L25.7737 70.7449ZM28.2095 65.6812C28.2095 64.4321 27.8565 63.2959 27.1393 62.3098L25.5218 63.4861C25.9765 64.1113 26.2095 64.8306 26.2095 65.6812H28.2095ZM27.1475 62.3213C26.4692 61.3603 25.4982 60.4856 24.2811 59.6828L23.1799 61.3524C24.2577 62.0632 25.0201 62.7755 25.5136 63.4746L27.1475 62.3213ZM24.2893 59.6883C23.0948 58.8833 20.7208 57.6449 17.2385 55.989L16.3796 57.7952C19.8797 59.4596 22.1201 60.6382 23.1716 61.3468L24.2893 59.6883ZM17.2346 55.9871C13.9984 54.4656 11.6385 53.0343 10.1027 51.7049L8.79374 53.217C10.5295 54.7196 13.0768 56.2424 16.3836 57.7971L17.2346 55.9871ZM10.1027 51.7049C8.56051 50.3698 7.33421 48.8214 6.41719 47.0561L4.64238 47.9781C5.67848 49.9726 7.06449 51.72 8.79374 53.217L10.1027 51.7049ZM6.41719 47.0561C5.52725 45.343 5.06494 43.3094 5.06494 40.9253H3.06494C3.06494 43.5705 3.57919 45.9314 4.64238 47.9781L6.41719 47.0561ZM5.06494 40.9253C5.06494 36.4401 6.56546 33.0127 9.50877 30.5188L8.21584 28.9929C4.76266 31.9189 3.06494 35.9378 3.06494 40.9253H5.06494ZM9.5059 30.5212C12.4944 28.0082 16.6822 26.6909 22.1924 26.6909V24.6909C16.3745 24.6909 11.6755 26.0836 8.21871 28.9905L9.5059 30.5212ZM22.1924 26.6909C24.896 26.6909 27.4593 27.011 29.8856 27.647L30.3927 25.7124C27.7897 25.03 25.0551 24.6909 22.1924 24.6909V26.6909ZM29.8879 27.6476C32.3702 28.2921 34.9701 29.2017 37.6881 30.3803L38.4838 28.5454C35.6842 27.3315 32.9862 26.3857 30.3904 25.7118L29.8879 27.6476ZM37.1623 29.0796L33.5002 37.9053L35.3475 38.6718L39.0096 29.8461L37.1623 29.0796ZM34.8034 37.3634C31.9248 36.1824 29.506 35.3445 27.5589 34.8641L27.0798 36.8058C28.8925 37.2531 31.21 38.051 34.0443 39.2137L34.8034 37.3634ZM27.5619 34.8648C25.6317 34.3823 23.7192 34.1392 21.8262 34.1392V36.1392C23.5464 36.1392 25.296 36.3599 27.0768 36.8051L27.5619 34.8648ZM21.8262 34.1392C19.5346 34.1392 17.6172 34.6726 16.225 35.8871L17.5397 37.3942C18.4424 36.6067 19.8209 36.1392 21.8262 36.1392V34.1392ZM16.225 35.8871C14.8458 37.0901 14.1611 38.678 14.1611 40.5591H16.1611C16.1611 39.2175 16.6239 38.1931 17.5397 37.3942L16.225 35.8871ZM14.1611 40.5591C14.1611 41.7204 14.4322 42.7849 15.0043 43.7184L16.7095 42.6732C16.3539 42.093 16.1611 41.3998 16.1611 40.5591H14.1611ZM15.0121 43.7309C15.5684 44.6092 16.41 45.4183 17.4767 46.1729L18.6317 44.54C17.6965 43.8785 17.0732 43.2472 16.7018 42.6607L15.0121 43.7309ZM17.4995 46.1885C18.5959 46.9195 21.0704 48.1956 24.8377 49.9942L25.6994 48.1894C21.8983 46.3747 19.5632 45.1606 18.6089 44.5244L17.4995 46.1885ZM24.8373 49.994C29.7986 52.3658 33.0559 54.6876 34.7659 56.9151L36.3523 55.6972C34.3514 53.0907 30.7483 50.603 25.6999 48.1896L24.8373 49.994ZM34.7689 56.919C36.4681 59.1101 37.3423 61.827 37.3423 65.1318H39.3423C39.3423 61.4542 38.361 58.2874 36.3493 55.6933L34.7689 56.919ZM58.0444 68.6475L57.2003 69.1837L57.2049 69.1907L58.0444 68.6475ZM70.9717 68.6841L70.1276 68.1479L70.126 68.1505L70.9717 68.6841ZM58.0444 50.3369L58.8796 50.8869L58.8826 50.8823L58.0444 50.3369ZM54.0161 78.1689L53.5162 79.035L53.5215 79.0381L54.0161 78.1689ZM55.0669 59.4556C55.0669 63.5876 55.7337 66.8751 57.2004 69.1837L58.8885 68.1112C57.7184 66.2694 57.0669 63.429 57.0669 59.4556H55.0669ZM57.2049 69.1907C58.7733 71.6146 61.3047 72.7603 64.563 72.7603V70.7603C61.8154 70.7603 60.0011 69.8307 58.884 68.1042L57.2049 69.1907ZM64.563 72.7603C67.7945 72.7603 70.2968 71.6277 71.8174 69.2177L70.126 68.1505C69.0587 69.842 67.2885 70.7603 64.563 70.7603V72.7603ZM71.8158 69.2203C73.2828 66.911 73.9492 63.6106 73.9492 59.4556H71.9492C71.9492 63.4549 71.2973 66.3067 70.1276 68.1479L71.8158 69.2203ZM73.9492 59.4556C73.9492 55.3263 73.2834 52.0564 71.8099 49.7916L70.1335 50.8823C71.2967 52.6702 71.9492 55.4793 71.9492 59.4556H73.9492ZM71.8099 49.7916C70.2613 47.4113 67.7375 46.2974 64.4897 46.2974V48.2974C67.2478 48.2974 69.0454 49.2098 70.1335 50.8823L71.8099 49.7916ZM64.4897 46.2974C61.2627 46.2974 58.7532 47.4137 57.2062 49.7916L58.8826 50.8823C59.9723 49.2074 61.7597 48.2974 64.4897 48.2974V46.2974ZM57.2093 49.7869C55.7317 52.0306 55.0669 55.3048 55.0669 59.4556H57.0669C57.0669 55.452 57.7204 52.6471 58.8796 50.8869L57.2093 49.7869ZM83.375 59.4556C83.375 65.9443 81.6671 70.8849 78.3711 74.4098L79.832 75.7758C83.5672 71.7811 85.375 66.297 85.375 59.4556H83.375ZM78.3711 74.4098C75.085 77.9241 70.4793 79.7324 64.4165 79.7324V81.7324C70.9025 81.7324 76.0869 79.7809 79.832 75.7758L78.3711 74.4098ZM64.4165 79.7324C60.635 79.7324 57.3432 78.9118 54.5107 77.2998L53.5215 79.0381C56.6949 80.8441 60.3367 81.7324 64.4165 81.7324V79.7324ZM54.516 77.3029C51.6897 75.6714 49.5165 73.3423 47.9892 70.2877L46.2003 71.1821C47.8956 74.5727 50.3367 77.1997 53.5162 79.035L54.516 77.3029ZM47.9892 70.2877C46.4594 67.2281 45.6777 63.6268 45.6777 59.4556H43.6777C43.6777 63.878 44.5074 67.7963 46.2003 71.1821L47.9892 70.2877ZM45.6777 59.4556C45.6777 52.9388 47.3753 48.0135 50.6429 44.5402L49.1862 43.1698C45.4714 47.1184 43.6777 52.5935 43.6777 59.4556H45.6777ZM50.6429 44.5402C53.9014 41.0766 58.5177 39.2886 64.6362 39.2886V37.2886C58.1083 37.2886 52.9101 39.2115 49.1862 43.1698L50.6429 44.5402ZM64.6362 39.2886C68.4177 39.2886 71.7096 40.1092 74.542 41.7212L75.5312 39.9829C72.3578 38.1769 68.7161 37.2886 64.6362 37.2886V39.2886ZM74.542 41.7212C77.3672 43.329 79.5388 45.6337 81.0649 48.6628L82.8511 47.763C81.1545 44.3956 78.7119 41.793 75.5312 39.9829L74.542 41.7212ZM81.0649 48.6628C82.5933 51.6963 83.375 55.284 83.375 59.4556H85.375C85.375 55.0333 84.5454 51.126 82.8511 47.763L81.0649 48.6628ZM116.235 47.4438V48.4438H117.235V47.4438H116.235ZM106.567 47.4438V46.4438H105.567V47.4438H106.567ZM106.567 80V81H107.567V80H106.567ZM95.3979 80H94.3979V81H95.3979V80ZM95.3979 47.4438H96.3979V46.4438H95.3979V47.4438ZM89.2456 47.4438H88.2456V48.4438H89.2456V47.4438ZM89.2456 42.0605L88.807 41.1619L88.2456 41.4359V42.0605H89.2456ZM95.3979 39.0576L95.8366 39.9563L96.3979 39.6823V39.0576H95.3979ZM120.154 24.3359L121.098 24.6648L121.417 23.7482L120.511 23.4018L120.154 24.3359ZM117.297 32.5391L116.997 33.4928L117.923 33.7846L118.242 32.8679L117.297 32.5391ZM107.629 32.9053L108.424 33.512L108.432 33.502L107.629 32.9053ZM106.567 39.0576H105.567V40.0576H106.567V39.0576ZM116.235 39.0576H117.235V38.0576H116.235V39.0576ZM116.235 46.4438H106.567V48.4438H116.235V46.4438ZM105.567 47.4438V80H107.567V47.4438H105.567ZM106.567 79H95.3979V81H106.567V79ZM96.3979 80V47.4438H94.3979V80H96.3979ZM95.3979 46.4438H89.2456V48.4438H95.3979V46.4438ZM90.2456 47.4438V42.0605H88.2456V47.4438H90.2456ZM89.6842 42.9592L95.8366 39.9563L94.9593 38.159L88.807 41.1619L89.6842 42.9592ZM96.3979 39.0576V36.0547H94.3979V39.0576H96.3979ZM96.3979 36.0547C96.3979 31.5342 97.5114 28.4514 99.5238 26.5674L98.1569 25.1074C95.5795 27.5203 94.3979 31.2491 94.3979 36.0547H96.3979ZM99.5238 26.5674C101.549 24.6718 104.917 23.6147 109.863 23.6147V21.6147C104.702 21.6147 100.722 22.7061 98.1569 25.1074L99.5238 26.5674ZM109.863 23.6147C113.622 23.6147 116.928 24.1739 119.797 25.2701L120.511 23.4018C117.374 22.2031 113.819 21.6147 109.863 21.6147V23.6147ZM119.209 24.0071L116.353 32.2102L118.242 32.8679L121.098 24.6648L119.209 24.0071ZM117.598 31.5853C115.277 30.8536 113.099 30.4771 111.072 30.4771V32.4771C112.853 32.4771 114.826 32.8085 116.997 33.4928L117.598 31.5853ZM111.072 30.4771C109.284 30.4771 107.783 31.0223 106.827 32.3086L108.432 33.502C108.891 32.884 109.685 32.4771 111.072 32.4771V30.4771ZM106.834 32.2986C105.963 33.441 105.567 34.8669 105.567 36.4941H107.567C107.567 35.1917 107.88 34.2251 108.424 33.5119L106.834 32.2986ZM105.567 36.4941V39.0576H107.567V36.4941H105.567ZM106.567 40.0576H116.235V38.0576H106.567V40.0576ZM115.235 39.0576V47.4438H117.235V39.0576H115.235ZM146.96 70.5518H147.96V69.1916L146.662 69.5973L146.96 70.5518ZM146.96 78.8647L147.369 79.7776L147.96 79.5129V78.8647H146.96ZM126.929 77.3633L126.183 78.0292L126.19 78.0376L126.929 77.3633ZM123.889 47.4438H124.889V46.4438H123.889V47.4438ZM118.542 47.4438H117.542V48.4438H118.542V47.4438ZM118.542 42.7197L118.023 41.8649L117.542 42.157V42.7197H118.542ZM124.695 38.9844L125.214 39.8392L125.511 39.659L125.632 39.3338L124.695 38.9844ZM127.917 30.3418V29.3418H127.223L126.98 29.9924L127.917 30.3418ZM135.059 30.3418H136.059V29.3418H135.059V30.3418ZM135.059 39.0576H134.059V40.0576H135.059V39.0576ZM146.521 39.0576H147.521V38.0576H146.521V39.0576ZM146.521 47.4438V48.4438H147.521V47.4438H146.521ZM135.059 47.4438V46.4438H134.059V47.4438H135.059ZM136.377 70.6982L135.724 71.4561L135.735 71.4648L136.377 70.6982ZM139.929 72.8335C142.019 72.8335 144.468 72.3782 147.259 71.5062L146.662 69.5973C143.984 70.4343 141.746 70.8335 139.929 70.8335V72.8335ZM145.96 70.5518V78.8647H147.96V70.5518H145.96ZM146.552 77.9519C143.932 79.124 140.663 79.7324 136.707 79.7324V81.7324C140.856 81.7324 144.422 81.0958 147.369 79.7776L146.552 77.9519ZM136.707 79.7324C132.387 79.7324 129.454 78.6463 127.667 76.689L126.19 78.0376C128.505 80.5725 132.091 81.7324 136.707 81.7324V79.7324ZM127.675 76.6974C125.876 74.6814 124.889 71.5697 124.889 67.1826H122.889C122.889 71.8288 123.929 75.5042 126.183 78.0291L127.675 76.6974ZM124.889 67.1826V47.4438H122.889V67.1826H124.889ZM123.889 46.4438H118.542V48.4438H123.889V46.4438ZM119.542 47.4438V42.7197H117.542V47.4438H119.542ZM119.061 43.5745L125.214 39.8392L124.176 38.1296L118.023 41.8649L119.061 43.5745ZM125.632 39.3338L128.854 30.6912L126.98 29.9924L123.758 38.635L125.632 39.3338ZM127.917 31.3418H135.059V29.3418H127.917V31.3418ZM134.059 30.3418V39.0576H136.059V30.3418H134.059ZM135.059 40.0576H146.521V38.0576H135.059V40.0576ZM145.521 39.0576V47.4438H147.521V39.0576H145.521ZM146.521 46.4438H135.059V48.4438H146.521V46.4438ZM134.059 47.4438V67.1826H136.059V47.4438H134.059ZM134.059 67.1826C134.059 68.9482 134.552 70.4464 135.724 71.456L137.029 69.9405C136.444 69.4364 136.059 68.5908 136.059 67.1826H134.059ZM135.735 71.4648C136.859 72.4063 138.288 72.8335 139.929 72.8335V70.8335C138.64 70.8335 137.702 70.5038 137.019 69.9317L135.735 71.4648ZM188.928 80L187.952 80.2148L188.124 81H188.928V80ZM185.779 65.6812L186.756 65.4663L186.752 65.4526L185.779 65.6812ZM181.531 47.5903L182.504 47.3617L182.323 46.5903H181.531V47.5903ZM181.274 47.5903V46.5903H180.479L180.3 47.3657L181.274 47.5903ZM173.804 80V81H174.599L174.778 80.2246L173.804 80ZM161.792 80L160.83 80.2736L161.037 81H161.792V80ZM150.146 39.0576V38.0576H148.822L149.185 39.3312L150.146 39.0576ZM161.279 39.0576L162.247 38.8054L162.052 38.0576H161.279V39.0576ZM166.003 57.1851L166.977 56.9581L166.974 56.9454L166.971 56.9329L166.003 57.1851ZM168.311 70.625L167.32 70.7605L167.438 71.625H168.311V70.625ZM168.53 70.625V71.625H169.479L169.529 70.6776L168.53 70.625ZM169.812 61.7993L168.829 61.6143L168.829 61.6147L169.812 61.7993ZM170.398 58.6865L169.43 58.4372L169.421 58.4691L169.415 58.5015L170.398 58.6865ZM175.452 39.0576V38.0576H174.677L174.483 38.8083L175.452 39.0576ZM187.756 39.0576L188.728 38.8202L188.541 38.0576H187.756V39.0576ZM192.554 58.6865L193.538 58.5076L193.532 58.4782L193.525 58.4491L192.554 58.6865ZM192.993 61.0669L192.01 61.2498L192.012 61.2608L192.014 61.2718L192.993 61.0669ZM193.616 64.436L192.629 64.5972L192.629 64.6004L193.616 64.436ZM194.128 67.915L193.136 68.0417L193.138 68.0536L193.14 68.0655L194.128 67.915ZM194.421 70.625L193.422 70.6607L193.456 71.625H194.421V70.625ZM194.641 70.625V71.625H195.524L195.633 70.749L194.641 70.625ZM195.813 63.4106L196.796 63.5916L196.797 63.5902L195.813 63.4106ZM197.021 57.1851L196.056 56.9238L196.051 56.9435L196.046 56.9634L197.021 57.1851ZM201.929 39.0576V38.0576H201.163L200.963 38.7963L201.929 39.0576ZM212.878 39.0576L213.839 39.3344L214.207 38.0576H212.878V39.0576ZM201.086 80V81H201.839L202.047 80.2768L201.086 80ZM189.905 79.7852L186.755 65.4663L184.802 65.896L187.952 80.2148L189.905 79.7852ZM186.752 65.4526L182.504 47.3617L180.557 47.8189L184.805 65.9098L186.752 65.4526ZM181.531 46.5903H181.274V48.5903H181.531V46.5903ZM180.3 47.3657L172.829 79.7754L174.778 80.2246L182.249 47.8149L180.3 47.3657ZM173.804 79H161.792V81H173.804V79ZM162.754 79.7264L151.108 38.784L149.185 39.3312L160.83 80.2736L162.754 79.7264ZM150.146 40.0576H161.279V38.0576H150.146V40.0576ZM160.312 39.3098L165.036 57.4372L166.971 56.9329L162.247 38.8054L160.312 39.3098ZM165.03 57.4121C165.776 60.6149 166.54 65.0597 167.32 70.7605L169.301 70.4895C168.518 64.7645 167.744 60.2494 166.977 56.9581L165.03 57.4121ZM168.311 71.625H168.53V69.625H168.311V71.625ZM169.529 70.6776C169.623 68.8936 170.039 66.0078 170.795 61.984L168.829 61.6147C168.072 65.6475 167.633 68.6455 167.532 70.5724L169.529 70.6776ZM170.795 61.9843L171.381 58.8715L169.415 58.5015L168.829 61.6143L170.795 61.9843ZM171.366 58.9359L176.42 39.3069L174.483 38.8083L169.43 58.4372L171.366 58.9359ZM175.452 40.0576H187.756V38.0576H175.452V40.0576ZM186.785 39.295L191.582 58.9239L193.525 58.4491L188.728 38.8202L186.785 39.295ZM191.57 58.8654C191.668 59.4046 191.815 60.1997 192.01 61.2498L193.976 60.884C193.781 59.8345 193.635 59.0427 193.538 58.5076L191.57 58.8654ZM192.014 61.2718C192.231 62.3053 192.436 63.4137 192.629 64.5972L194.603 64.2749C194.405 63.0658 194.195 61.9281 193.972 60.862L192.014 61.2718ZM192.629 64.6004C192.823 65.7601 192.992 66.9072 193.136 68.0417L195.12 67.7884C194.972 66.628 194.799 65.4557 194.602 64.2716L192.629 64.6004ZM193.14 68.0655C193.308 69.1718 193.4 70.0323 193.422 70.6607L195.421 70.5893C195.394 69.8505 195.29 68.9044 195.117 67.7646L193.14 68.0655ZM194.421 71.625H194.641V69.625H194.421V71.625ZM195.633 70.749C195.85 69.0193 196.236 66.6362 196.796 63.5916L194.829 63.2297C194.267 66.2886 193.872 68.7151 193.649 70.501L195.633 70.749ZM196.797 63.5902C197.359 60.5114 197.758 58.4568 197.997 57.4067L196.046 56.9634C195.797 58.0618 195.39 60.1575 194.829 63.2311L196.797 63.5902ZM197.987 57.4464L202.894 39.3189L200.963 38.7963L196.056 56.9238L197.987 57.4464ZM201.929 40.0576H212.878V38.0576H201.929V40.0576ZM211.917 38.7809L200.125 79.7232L202.047 80.2768L213.839 39.3344L211.917 38.7809ZM201.086 79H188.928V81H201.086V79ZM245.508 80L244.576 80.3619L244.823 81H245.508V80ZM243.347 74.4336L244.279 74.0717L244.032 73.4336H243.347V74.4336ZM243.054 74.4336V73.4336H242.571L242.271 73.8119L243.054 74.4336ZM237.231 79.3774L237.647 80.287L237.652 80.2848L237.231 79.3774ZM220.166 77.3633L219.459 78.0704L219.463 78.0742L220.166 77.3633ZM221.338 58.1738L221.899 59.0017L221.9 59.0008L221.338 58.1738ZM235.107 54.7314L235.077 53.7319L235.072 53.7321L235.107 54.7314ZM242.212 54.5117L242.243 55.5112L243.212 55.4813V54.5117H242.212ZM224.304 49.458L223.406 49.8982L223.831 50.7652L224.713 50.3708L224.304 49.458ZM220.605 41.9141L220.142 41.028L219.279 41.4797L219.708 42.3543L220.605 41.9141ZM253.308 80V81H254.308V80H253.308ZM242.212 61.0303H243.212V59.9958L242.178 60.0308L242.212 61.0303ZM237.891 61.1768L237.921 62.1763L237.924 62.1762L237.891 61.1768ZM239.868 70.332L239.178 69.6081L239.173 69.6136L239.868 70.332ZM246.44 79.6381L244.279 74.0717L242.415 74.7954L244.576 80.3619L246.44 79.6381ZM243.347 73.4336H243.054V75.4336H243.347V73.4336ZM242.271 73.8119C240.454 76.1007 238.629 77.6277 236.811 78.4701L237.652 80.2848C239.838 79.2718 241.895 77.5028 243.837 75.0553L242.271 73.8119ZM236.816 78.4678C235.015 79.2903 232.585 79.7324 229.468 79.7324V81.7324C232.747 81.7324 235.492 81.2712 237.647 80.287L236.816 78.4678ZM229.468 79.7324C225.736 79.7324 222.911 78.6724 220.869 76.6524L219.463 78.0742C221.962 80.5463 225.338 81.7324 229.468 81.7324V79.7324ZM220.873 76.6562C218.867 74.65 217.797 71.7383 217.797 67.7686H215.797C215.797 72.0995 216.973 75.5844 219.459 78.0704L220.873 76.6562ZM217.797 67.7686C217.797 63.6827 219.201 60.8295 221.899 59.0017L220.777 57.3459C217.42 59.6197 215.797 63.163 215.797 67.7686H217.797ZM221.9 59.0008C224.724 57.0803 229.092 55.9478 235.143 55.7308L235.072 53.7321C228.867 53.9546 224.055 55.117 220.776 57.3469L221.9 59.0008ZM235.138 55.731L242.243 55.5112L242.181 53.5122L235.077 53.7319L235.138 55.731ZM243.212 54.5117V52.7173H241.212V54.5117H243.212ZM243.212 52.7173C243.212 50.482 242.638 48.6232 241.318 47.3328C240.001 46.0467 238.112 45.4917 235.84 45.4917V47.4917C237.815 47.4917 239.112 47.9743 239.92 48.7634C240.723 49.5482 241.212 50.8022 241.212 52.7173H243.212ZM235.84 45.4917C232.377 45.4917 228.387 46.5354 223.896 48.5452L224.713 50.3708C229.059 48.4255 232.76 47.4917 235.84 47.4917V45.4917ZM225.202 49.0178L221.503 41.4738L219.708 42.3543L223.406 49.8982L225.202 49.0178ZM221.069 42.8001C225.627 40.415 230.69 39.2153 236.279 39.2153V37.2153C230.394 37.2153 225.008 38.4815 220.142 41.028L221.069 42.8001ZM236.279 39.2153C241.643 39.2153 245.595 40.3853 248.281 42.5787L249.546 41.0297C246.373 38.438 241.902 37.2153 236.279 37.2153V39.2153ZM248.281 42.5787C250.914 44.7288 252.308 48.0404 252.308 52.7173H254.308C254.308 47.6286 252.773 43.6647 249.546 41.0297L248.281 42.5787ZM252.308 52.7173V80H254.308V52.7173H252.308ZM253.308 79H245.508V81H253.308V79ZM242.178 60.0308L237.857 60.1773L237.924 62.1762L242.246 62.0297L242.178 60.0308ZM237.861 60.1772C234.541 60.2771 231.898 60.8753 230.079 62.1065L231.2 63.7627C232.555 62.8454 234.746 62.2718 237.921 62.1763L237.861 60.1772ZM230.079 62.1065C228.174 63.3963 227.259 65.3692 227.259 67.8418H229.259C229.259 65.9198 229.932 64.6213 231.2 63.7627L230.079 62.1065ZM227.259 67.8418C227.259 69.6091 227.773 71.1062 228.957 72.1387C230.116 73.1484 231.75 73.5659 233.679 73.5659V71.5659C231.996 71.5659 230.92 71.1961 230.271 70.6311C229.649 70.0889 229.259 69.2239 229.259 67.8418H227.259ZM233.679 73.5659C236.469 73.5659 238.802 72.7568 240.564 71.0505L239.173 69.6136C237.859 70.8858 236.065 71.5659 233.679 71.5659V73.5659ZM240.558 71.0559C242.347 69.3504 243.212 67.0961 243.212 64.3994H241.212C241.212 66.6343 240.514 68.3352 239.178 69.6082L240.558 71.0559ZM243.212 64.3994V61.0303H241.212V64.3994H243.212ZM291.467 38.6182L292.464 38.6983L292.534 37.8285L291.682 37.6414L291.467 38.6182ZM290.625 49.0918L290.364 50.0572L291.525 50.371L291.622 49.172L290.625 49.0918ZM278.979 51.4722L278.305 50.7343L278.3 50.7384L278.979 51.4722ZM276.013 80V81H277.013V80H276.013ZM264.844 80H263.844V81H264.844V80ZM264.844 39.0576V38.0576H263.844V39.0576H264.844ZM273.303 39.0576L274.276 38.8248L274.092 38.0576H273.303V39.0576ZM274.951 45.9424L273.979 46.1752L274.162 46.9424H274.951V45.9424ZM275.5 45.9424V46.9424H276.09L276.376 46.4264L275.5 45.9424ZM280.627 40.4126L281.171 41.2519L281.173 41.2504L280.627 40.4126ZM287.695 39.2886C289.168 39.2886 290.347 39.3961 291.253 39.5949L291.682 37.6414C290.586 37.4008 289.25 37.2886 287.695 37.2886V39.2886ZM290.47 38.538L289.628 49.0116L291.622 49.172L292.464 38.6983L290.47 38.538ZM290.886 48.1264C289.872 47.8524 288.68 47.7256 287.329 47.7256V49.7256C288.566 49.7256 289.571 49.8429 290.364 50.0572L290.886 48.1264ZM287.329 47.7256C283.595 47.7256 280.543 48.6873 278.305 50.7343L279.654 52.2101C281.42 50.5949 283.934 49.7256 287.329 49.7256V47.7256ZM278.3 50.7384C276.074 52.7998 275.013 55.655 275.013 59.1626H277.013C277.013 56.0784 277.93 53.8066 279.659 52.2059L278.3 50.7384ZM275.013 59.1626V80H277.013V59.1626H275.013ZM276.013 79H264.844V81H276.013V79ZM265.844 80V39.0576H263.844V80H265.844ZM264.844 40.0576H273.303V38.0576H264.844V40.0576ZM272.331 39.2904L273.979 46.1752L275.924 45.7096L274.276 38.8248L272.331 39.2904ZM274.951 46.9424H275.5V44.9424H274.951V46.9424ZM276.376 46.4264C277.568 44.2717 279.164 42.5519 281.171 41.2519L280.084 39.5733C277.794 41.0565 275.973 43.0232 274.625 45.4583L276.376 46.4264ZM281.173 41.2504C283.188 39.9378 285.354 39.2886 287.695 39.2886V37.2886C284.958 37.2886 282.413 38.0553 280.081 39.5748L281.173 41.2504ZM310.291 48.5059L311.033 49.1755L311.039 49.1695L310.291 48.5059ZM307.983 54.8779L306.986 54.8073L306.91 55.8779H307.983V54.8779ZM323.657 54.8779V55.8779H324.675L324.657 54.8602L323.657 54.8779ZM321.497 48.5059L320.76 49.1827L320.766 49.1886L321.497 48.5059ZM301.538 43.9282L300.801 43.2529L300.8 43.2532L301.538 43.9282ZM334.131 62.312V63.312H335.131V62.312H334.131ZM307.727 62.312V61.312H306.688L306.728 62.3504L307.727 62.312ZM331.824 69.1968H332.824V67.6227L331.399 68.2915L331.824 69.1968ZM331.824 77.8394L332.271 78.7338L332.824 78.4574V77.8394H331.824ZM325.562 80L325.357 79.0211L325.347 79.0233L325.562 80ZM315.857 45.2354C313.256 45.2354 311.108 46.0776 309.542 47.8422L311.039 49.1695C312.159 47.9068 313.721 47.2354 315.857 47.2354V45.2354ZM309.548 47.8362C308.008 49.544 307.191 51.9092 306.986 54.8073L308.981 54.9486C309.166 52.3291 309.887 50.4463 311.033 49.1755L309.548 47.8362ZM307.983 55.8779H323.657V53.8779H307.983V55.8779ZM324.657 54.8602C324.605 51.9426 323.84 49.5488 322.227 47.8231L320.766 49.1886C321.937 50.4414 322.611 52.2957 322.657 54.8956L324.657 54.8602ZM322.233 47.8291C320.622 46.0774 318.458 45.2354 315.857 45.2354V47.2354C317.992 47.2354 319.588 47.907 320.76 49.1827L322.233 47.8291ZM317.432 79.7324C311.028 79.7324 306.155 77.9704 302.678 74.5618L301.278 75.99C305.222 79.8567 310.652 81.7324 317.432 81.7324V79.7324ZM302.678 74.5618C299.209 71.1615 297.411 66.2979 297.411 59.8218H295.411C295.411 66.6757 297.324 72.1149 301.278 75.99L302.678 74.5618ZM297.411 59.8218C297.411 53.1214 299.079 48.0972 302.276 44.6033L300.8 43.2532C297.161 47.2299 295.411 52.8014 295.411 59.8218H297.411ZM302.276 44.6035C305.493 41.0895 309.952 39.2886 315.784 39.2886V37.2886C309.506 37.2886 304.468 39.2474 300.801 43.2529L302.276 44.6035ZM315.784 39.2886C321.373 39.2886 325.593 40.8745 328.582 43.9315L330.012 42.5333C326.556 38.9986 321.766 37.2886 315.784 37.2886V39.2886ZM328.582 43.9315C331.577 46.9951 333.131 51.2714 333.131 56.8921H335.131C335.131 50.8917 333.462 46.0616 330.012 42.5333L328.582 43.9315ZM333.131 56.8921V62.312H335.131V56.8921H333.131ZM334.131 61.312H307.727V63.312H334.131V61.312ZM306.728 62.3504C306.857 65.7041 307.858 68.4444 309.835 70.4483L311.259 69.0439C309.72 67.4833 308.841 65.2675 308.726 62.2736L306.728 62.3504ZM309.835 70.4483C311.828 72.4688 314.578 73.4194 317.944 73.4194V71.4194C314.963 71.4194 312.782 70.5878 311.259 69.0439L309.835 70.4483ZM317.944 73.4194C320.48 73.4194 322.888 73.1558 325.166 72.6242L324.712 70.6766C322.595 71.1703 320.341 71.4194 317.944 71.4194V73.4194ZM325.166 72.6242C327.442 72.0932 329.803 71.2499 332.249 70.102L331.399 68.2915C329.059 69.3898 326.83 70.1822 324.712 70.6766L325.166 72.6242ZM330.824 69.1968V77.8394H332.824V69.1968H330.824ZM331.377 76.9449C329.503 77.8815 327.498 78.5741 325.357 79.0211L325.766 80.9789C328.069 80.4981 330.238 79.7503 332.271 78.7338L331.377 76.9449ZM325.347 79.0233C323.218 79.4913 320.584 79.7324 317.432 79.7324V81.7324C320.675 81.7324 323.462 81.4853 325.776 80.9767L325.347 79.0233ZM400.452 72.9688L399.77 72.2372L399.768 72.2389L400.452 72.9688ZM363.574 80H362.574V81H363.574V80ZM363.574 26.46V25.46H362.574V26.46H363.574ZM374.927 35.7617V34.7617H373.927V35.7617H374.927ZM374.927 70.625H373.927V71.625H374.927V70.625ZM406.996 52.7173C406.996 61.3362 404.543 67.7888 399.77 72.2372L401.133 73.7003C406.419 68.7737 408.996 61.7253 408.996 52.7173H406.996ZM399.768 72.2389C395.009 76.6959 388.052 79 378.735 79V81C388.364 81 395.884 78.6166 401.135 73.6986L399.768 72.2389ZM378.735 79H363.574V81H378.735V79ZM364.574 80V26.46H362.574V80H364.574ZM363.574 27.46H380.383V25.46H363.574V27.46ZM380.383 27.46C388.948 27.46 395.458 29.7174 400.054 34.1047L401.435 32.658C396.363 27.8168 389.299 25.46 380.383 25.46V27.46ZM400.054 34.1047C404.645 38.4871 406.996 44.6446 406.996 52.7173H408.996C408.996 44.2372 406.512 37.5041 401.435 32.658L400.054 34.1047ZM397.204 53.0103C397.204 47.135 395.909 42.5418 393.145 39.4119C390.359 36.2582 386.236 34.7617 380.969 34.7617V36.7617C385.859 36.7617 389.353 38.14 391.646 40.7358C393.959 43.3554 395.204 47.3864 395.204 53.0103H397.204ZM380.969 34.7617H374.927V36.7617H380.969V34.7617ZM373.927 35.7617V70.625H375.927V35.7617H373.927ZM374.927 71.625H379.797V69.625H374.927V71.625ZM379.797 71.625C385.439 71.625 389.849 70.1073 392.834 66.9029C395.806 63.7118 397.204 59.019 397.204 53.0103H395.204C395.204 58.7447 393.867 62.8592 391.37 65.5398C388.886 68.2069 385.093 69.625 379.797 69.625V71.625ZM429.602 48.5059L430.345 49.1755L430.35 49.1695L429.602 48.5059ZM427.295 54.8779L426.297 54.8073L426.222 55.8779H427.295V54.8779ZM442.969 54.8779V55.8779H443.987L443.969 54.8602L442.969 54.8779ZM440.808 48.5059L440.072 49.1827L440.077 49.1886L440.808 48.5059ZM420.85 43.9282L420.112 43.2529L420.112 43.2532L420.85 43.9282ZM453.442 62.312V63.312H454.442V62.312H453.442ZM427.039 62.312V61.312H425.999L426.039 62.3504L427.039 62.312ZM451.135 69.1968H452.135V67.6227L450.71 68.2915L451.135 69.1968ZM451.135 77.8394L451.582 78.7338L452.135 78.4574V77.8394H451.135ZM444.873 80L444.669 79.0211L444.658 79.0233L444.873 80ZM435.168 45.2354C432.568 45.2354 430.419 46.0776 428.854 47.8422L430.35 49.1695C431.47 47.9068 433.033 47.2354 435.168 47.2354V45.2354ZM428.859 47.8362C427.32 49.544 426.503 51.9092 426.297 54.8073L428.292 54.9486C428.478 52.3291 429.199 50.4463 430.345 49.1755L428.859 47.8362ZM427.295 55.8779H442.969V53.8779H427.295V55.8779ZM443.969 54.8602C443.917 51.9426 443.151 49.5488 441.539 47.8231L440.077 49.1886C441.248 50.4414 441.923 52.2957 441.969 54.8956L443.969 54.8602ZM441.544 47.8291C439.934 46.0774 437.77 45.2354 435.168 45.2354V47.2354C437.303 47.2354 438.899 47.907 440.072 49.1827L441.544 47.8291ZM436.743 79.7324C430.339 79.7324 425.466 77.9704 421.989 74.5618L420.589 75.99C424.534 79.8567 429.963 81.7324 436.743 81.7324V79.7324ZM421.989 74.5618C418.52 71.1615 416.723 66.2979 416.723 59.8218H414.723C414.723 66.6757 416.636 72.1149 420.589 75.99L421.989 74.5618ZM416.723 59.8218C416.723 53.1214 418.39 48.0972 421.587 44.6033L420.112 43.2532C416.473 47.2299 414.723 52.8014 414.723 59.8218H416.723ZM421.587 44.6035C424.805 41.0895 429.264 39.2886 435.095 39.2886V37.2886C428.817 37.2886 423.779 39.2474 420.112 43.2529L421.587 44.6035ZM435.095 39.2886C440.685 39.2886 444.904 40.8745 447.893 43.9315L449.323 42.5333C445.867 38.9986 441.078 37.2886 435.095 37.2886V39.2886ZM447.893 43.9315C450.889 46.9951 452.442 51.2714 452.442 56.8921H454.442C454.442 50.8917 452.773 46.0616 449.323 42.5333L447.893 43.9315ZM452.442 56.8921V62.312H454.442V56.8921H452.442ZM453.442 61.312H427.039V63.312H453.442V61.312ZM426.039 62.3504C426.168 65.7041 427.17 68.4444 429.146 70.4483L430.57 69.0439C429.031 67.4833 428.153 65.2675 428.038 62.2736L426.039 62.3504ZM429.146 70.4483C431.139 72.4688 433.89 73.4194 437.256 73.4194V71.4194C434.274 71.4194 432.093 70.5878 430.57 69.0439L429.146 70.4483ZM437.256 73.4194C439.791 73.4194 442.199 73.1558 444.478 72.6242L444.023 70.6766C441.907 71.1703 439.652 71.4194 437.256 71.4194V73.4194ZM444.478 72.6242C446.754 72.0932 449.115 71.2499 451.56 70.102L450.71 68.2915C448.371 69.3898 446.142 70.1822 444.023 70.6766L444.478 72.6242ZM450.135 69.1968V77.8394H452.135V69.1968H450.135ZM450.688 76.9449C448.815 77.8815 446.809 78.5741 444.669 79.0211L445.077 80.9789C447.38 80.4981 449.549 79.7503 451.582 78.7338L450.688 76.9449ZM444.658 79.0233C442.529 79.4913 439.896 79.7324 436.743 79.7324V81.7324C439.987 81.7324 442.774 81.4853 445.088 80.9767L444.658 79.0233ZM472.266 80L471.331 80.3561L471.577 81H472.266V80ZM456.665 39.0576V38.0576H455.214L455.731 39.4137L456.665 39.0576ZM468.347 39.0576L469.294 38.7365L469.064 38.0576H468.347V39.0576ZM476.257 62.3853L477.216 62.1001L477.21 62.082L477.204 62.0641L476.257 62.3853ZM477.905 70.7715L476.909 70.8545L476.985 71.7715H477.905V70.7715ZM478.125 70.7715V71.7715H479.074L479.124 70.8235L478.125 70.7715ZM479.773 62.3853L478.825 62.0655L478.82 62.0813L478.815 62.0972L479.773 62.3853ZM487.646 39.0576V38.0576H486.929L486.699 38.7378L487.646 39.0576ZM499.329 39.0576L500.263 39.4137L500.78 38.0576H499.329V39.0576ZM483.728 80V81H484.417L484.662 80.3561L483.728 80ZM473.2 79.6439L457.599 38.7016L455.731 39.4137L471.331 80.3561L473.2 79.6439ZM456.665 40.0576H468.347V38.0576H456.665V40.0576ZM467.4 39.3787L475.31 62.7064L477.204 62.0641L469.294 38.7365L467.4 39.3787ZM475.299 62.6704C476.161 65.5691 476.696 68.2964 476.909 70.8545L478.902 70.6884C478.676 67.9731 478.111 65.1096 477.216 62.1001L475.299 62.6704ZM477.905 71.7715H478.125V69.7715H477.905V71.7715ZM479.124 70.8235C479.24 68.5865 479.768 65.8744 480.731 62.6733L478.815 62.0972C477.825 65.3903 477.254 68.2689 477.126 70.7195L479.124 70.8235ZM480.72 62.705L488.594 39.3774L486.699 38.7378L478.825 62.0655L480.72 62.705ZM487.646 40.0576H499.329V38.0576H487.646V40.0576ZM498.394 38.7016L482.794 79.6439L484.662 80.3561L500.263 39.4137L498.394 38.7016ZM483.728 79H472.266V81H483.728V79ZM516.614 48.5059L517.357 49.1755L517.362 49.1695L516.614 48.5059ZM514.307 54.8779L513.309 54.8073L513.233 55.8779H514.307V54.8779ZM529.98 54.8779V55.8779H530.998L530.98 54.8602L529.98 54.8779ZM527.82 48.5059L527.084 49.1827L527.089 49.1886L527.82 48.5059ZM507.861 43.9282L507.124 43.2529L507.124 43.2532L507.861 43.9282ZM540.454 62.312V63.312H541.454V62.312H540.454ZM514.05 62.312V61.312H513.011L513.051 62.3504L514.05 62.312ZM538.147 69.1968H539.147V67.6227L537.722 68.2915L538.147 69.1968ZM538.147 77.8394L538.594 78.7338L539.147 78.4574V77.8394H538.147ZM531.885 80L531.68 79.0211L531.67 79.0233L531.885 80ZM522.18 45.2354C519.58 45.2354 517.431 46.0776 515.866 47.8422L517.362 49.1695C518.482 47.9068 520.044 47.2354 522.18 47.2354V45.2354ZM515.871 47.8362C514.331 49.544 513.514 51.9092 513.309 54.8073L515.304 54.9486C515.49 52.3291 516.211 50.4463 517.356 49.1755L515.871 47.8362ZM514.307 55.8779H529.98V53.8779H514.307V55.8779ZM530.98 54.8602C530.929 51.9426 530.163 49.5488 528.55 47.8231L527.089 49.1886C528.26 50.4414 528.935 52.2957 528.981 54.8956L530.98 54.8602ZM528.556 47.8291C526.946 46.0774 524.781 45.2354 522.18 45.2354V47.2354C524.315 47.2354 525.911 47.907 527.084 49.1827L528.556 47.8291ZM523.755 79.7324C517.351 79.7324 512.478 77.9704 509.001 74.5618L507.601 75.99C511.545 79.8567 516.975 81.7324 523.755 81.7324V79.7324ZM509.001 74.5618C505.532 71.1615 503.734 66.2979 503.734 59.8218H501.734C501.734 66.6757 503.648 72.1149 507.601 75.99L509.001 74.5618ZM503.734 59.8218C503.734 53.1214 505.402 48.0972 508.599 44.6033L507.124 43.2532C503.485 47.2299 501.734 52.8014 501.734 59.8218H503.734ZM508.599 44.6035C511.816 41.0895 516.275 39.2886 522.107 39.2886V37.2886C515.829 37.2886 510.791 39.2474 507.124 43.2529L508.599 44.6035ZM522.107 39.2886C527.697 39.2886 531.916 40.8745 534.905 43.9315L536.335 42.5333C532.879 38.9986 528.089 37.2886 522.107 37.2886V39.2886ZM534.905 43.9315C537.901 46.9951 539.454 51.2714 539.454 56.8921H541.454C541.454 50.8917 539.785 46.0616 536.335 42.5333L534.905 43.9315ZM539.454 56.8921V62.312H541.454V56.8921H539.454ZM540.454 61.312H514.05V63.312H540.454V61.312ZM513.051 62.3504C513.18 65.7041 514.182 68.4444 516.158 70.4483L517.582 69.0439C516.043 67.4833 515.165 65.2675 515.05 62.2736L513.051 62.3504ZM516.158 70.4483C518.151 72.4688 520.902 73.4194 524.268 73.4194V71.4194C521.286 71.4194 519.105 70.5878 517.582 69.0439L516.158 70.4483ZM524.268 73.4194C526.803 73.4194 529.211 73.1558 531.489 72.6242L531.035 70.6766C528.919 71.1703 526.664 71.4194 524.268 71.4194V73.4194ZM531.489 72.6242C533.765 72.0932 536.126 71.2499 538.572 70.102L537.722 68.2915C535.382 69.3898 533.154 70.1822 531.035 70.6766L531.489 72.6242ZM537.147 69.1968V77.8394H539.147V69.1968H537.147ZM537.7 76.9449C535.827 77.8815 533.821 78.5741 531.68 79.0211L532.089 80.9789C534.392 80.4981 536.561 79.7503 538.594 78.7338L537.7 76.9449ZM531.67 79.0233C529.541 79.4913 526.908 79.7324 523.755 79.7324V81.7324C526.999 81.7324 529.785 81.4853 532.099 80.9767L531.67 79.0233ZM560.706 80V81H561.706V80H560.706ZM549.536 80H548.536V81H549.536V80ZM549.536 23.0176V22.0176H548.536V23.0176H549.536ZM560.706 23.0176H561.706V22.0176H560.706V23.0176ZM560.706 79H549.536V81H560.706V79ZM550.536 80V23.0176H548.536V80H550.536ZM549.536 24.0176H560.706V22.0176H549.536V24.0176ZM559.706 23.0176V80H561.706V23.0176H559.706ZM583.337 68.6475L582.493 69.1837L582.498 69.1907L583.337 68.6475ZM596.265 68.6841L595.421 68.1479L595.419 68.1505L596.265 68.6841ZM583.337 50.3369L584.173 50.8869L584.176 50.8823L583.337 50.3369ZM579.309 78.1689L578.809 79.035L578.814 79.0381L579.309 78.1689ZM580.36 59.4556C580.36 63.5876 581.027 66.8751 582.493 69.1837L584.181 68.1112C583.011 66.2694 582.36 63.429 582.36 59.4556H580.36ZM582.498 69.1907C584.066 71.6146 586.598 72.7603 589.856 72.7603V70.7603C587.108 70.7603 585.294 69.8307 584.177 68.1042L582.498 69.1907ZM589.856 72.7603C593.087 72.7603 595.59 71.6277 597.11 69.2177L595.419 68.1505C594.352 69.842 592.581 70.7603 589.856 70.7603V72.7603ZM597.109 69.2203C598.576 66.911 599.242 63.6106 599.242 59.4556H597.242C597.242 63.4549 596.59 66.3067 595.421 68.1479L597.109 69.2203ZM599.242 59.4556C599.242 55.3263 598.576 52.0564 597.103 49.7916L595.426 50.8823C596.59 52.6702 597.242 55.4793 597.242 59.4556H599.242ZM597.103 49.7916C595.554 47.4113 593.03 46.2974 589.783 46.2974V48.2974C592.541 48.2974 594.338 49.2098 595.426 50.8823L597.103 49.7916ZM589.783 46.2974C586.556 46.2974 584.046 47.4137 582.499 49.7916L584.176 50.8823C585.265 49.2074 587.053 48.2974 589.783 48.2974V46.2974ZM582.502 49.7869C581.025 52.0306 580.36 55.3048 580.36 59.4556H582.36C582.36 55.452 583.013 52.6471 584.173 50.8869L582.502 49.7869ZM608.668 59.4556C608.668 65.9443 606.96 70.8849 603.664 74.4098L605.125 75.7758C608.86 71.7811 610.668 66.297 610.668 59.4556H608.668ZM603.664 74.4098C600.378 77.9241 595.772 79.7324 589.709 79.7324V81.7324C596.195 81.7324 601.38 79.7809 605.125 75.7758L603.664 74.4098ZM589.709 79.7324C585.928 79.7324 582.636 78.9118 579.804 77.2998L578.814 79.0381C581.988 80.8441 585.63 81.7324 589.709 81.7324V79.7324ZM579.809 77.3029C576.983 75.6714 574.809 73.3423 573.282 70.2877L571.493 71.1821C573.189 74.5727 575.63 77.1997 578.809 79.035L579.809 77.3029ZM573.282 70.2877C571.752 67.2281 570.971 63.6268 570.971 59.4556H568.971C568.971 63.878 569.8 67.7963 571.493 71.1821L573.282 70.2877ZM570.971 59.4556C570.971 52.9388 572.668 48.0135 575.936 44.5402L574.479 43.1698C570.764 47.1184 568.971 52.5935 568.971 59.4556H570.971ZM575.936 44.5402C579.194 41.0766 583.811 39.2886 589.929 39.2886V37.2886C583.401 37.2886 578.203 39.2115 574.479 43.1698L575.936 44.5402ZM589.929 39.2886C593.711 39.2886 597.003 40.1092 599.835 41.7212L600.824 39.9829C597.651 38.1769 594.009 37.2886 589.929 37.2886V39.2886ZM599.835 41.7212C602.66 43.329 604.832 45.6337 606.358 48.6628L608.144 47.763C606.448 44.3956 604.005 41.793 600.824 39.9829L599.835 41.7212ZM606.358 48.6628C607.886 51.6963 608.668 55.284 608.668 59.4556H610.668C610.668 55.0333 609.838 51.126 608.144 47.763L606.358 48.6628ZM630.066 75.4956L630.853 74.879L630.553 74.4956H630.066V75.4956ZM629.48 75.4956V74.4956H628.359L628.486 75.6092L629.48 75.4956ZM630.066 98.0176V99.0176H631.066V98.0176H630.066ZM618.896 98.0176H617.896V99.0176H618.896V98.0176ZM618.896 39.0576V38.0576H617.896V39.0576H618.896ZM627.979 39.0576L628.937 38.7733L628.725 38.0576H627.979V39.0576ZM629.553 44.3677L628.594 44.652L628.807 45.3677H629.553V44.3677ZM630.066 44.3677V45.3677H630.611L630.906 44.9095L630.066 44.3677ZM655.188 70.8447L654.26 70.4721L654.258 70.4782L655.188 70.8447ZM632.043 49.7876L632.842 50.3895L632.846 50.3839L632.043 49.7876ZM630.066 58.1738L629.066 58.1613V58.1738H630.066ZM632.007 68.8306L631.18 69.3926L631.185 69.3998L632.007 68.8306ZM643.872 50.2637L643.016 50.7797L643.019 50.7858L643.023 50.7918L643.872 50.2637ZM641.382 79.7324C636.85 79.7324 633.38 78.1056 630.853 74.879L629.279 76.1122C632.22 79.868 636.295 81.7324 641.382 81.7324V79.7324ZM630.066 74.4956H629.48V76.4956H630.066V74.4956ZM628.486 75.6092C628.881 79.0646 629.066 80.9643 629.066 81.4282H631.066C631.066 80.8179 630.86 78.7625 630.474 75.3821L628.486 75.6092ZM629.066 81.4282V98.0176H631.066V81.4282H629.066ZM630.066 97.0176H618.896V99.0176H630.066V97.0176ZM619.896 98.0176V39.0576H617.896V98.0176H619.896ZM618.896 40.0576H627.979V38.0576H618.896V40.0576ZM627.02 39.3419L628.594 44.652L630.512 44.0834L628.937 38.7733L627.02 39.3419ZM629.553 45.3677H630.066V43.3677H629.553V45.3677ZM630.906 44.9095C633.321 41.1634 636.862 39.2886 641.675 39.2886V37.2886C636.234 37.2886 632.035 39.4665 629.225 43.8259L630.906 44.9095ZM641.675 39.2886C646.207 39.2886 649.684 41.0173 652.22 44.4823L653.834 43.3009C650.902 39.2952 646.811 37.2886 641.675 37.2886V39.2886ZM652.22 44.4823C654.785 47.9862 656.129 52.9384 656.129 59.4556H658.129C658.129 52.6915 656.738 47.2677 653.834 43.3009L652.22 44.4823ZM656.129 59.4556C656.129 63.7298 655.496 67.3942 654.26 70.4721L656.116 71.2173C657.468 67.8499 658.129 63.9216 658.129 59.4556H656.129ZM654.258 70.4782C653.045 73.5557 651.334 75.8385 649.152 77.3907L650.311 79.0204C652.865 77.2035 654.792 74.5791 656.118 71.2113L654.258 70.4782ZM649.152 77.3907C646.97 78.9427 644.394 79.7324 641.382 79.7324V81.7324C644.766 81.7324 647.757 80.8375 650.311 79.0204L649.152 77.3907ZM638.086 46.2241C635.114 46.2241 632.753 47.1558 631.241 49.1913L632.846 50.3839C633.873 49.0014 635.541 48.2241 638.086 48.2241V46.2241ZM631.245 49.1857C629.777 51.1332 629.116 54.1993 629.066 58.1613L631.066 58.1863C631.114 54.3359 631.771 51.8111 632.842 50.3894L631.245 49.1857ZM629.066 58.1738V59.3823H631.066V58.1738H629.066ZM629.066 59.3823C629.066 63.823 629.71 67.2293 631.18 69.3926L632.834 68.2685C631.716 66.6232 631.066 63.7307 631.066 59.3823H629.066ZM631.185 69.3998C632.732 71.6355 635.155 72.687 638.232 72.687V70.687C635.646 70.687 633.918 69.8342 632.829 68.2614L631.185 69.3998ZM638.232 72.687C641.069 72.687 643.277 71.4863 644.718 69.1111C646.11 66.8166 646.74 63.5036 646.74 59.3091H644.74C644.74 63.3666 644.119 66.2425 643.008 68.0739C641.946 69.8247 640.401 70.687 638.232 70.687V72.687ZM646.74 59.3091C646.74 55.2109 646.112 51.9723 644.721 49.7355L643.023 50.7918C644.122 52.559 644.74 55.3506 644.74 59.3091H646.74ZM644.729 49.7477C643.303 47.3819 641.025 46.2241 638.086 46.2241V48.2241C640.42 48.2241 641.999 49.0927 643.016 50.7797L644.729 49.7477ZM677.747 48.5059L678.489 49.1755L678.495 49.1695L677.747 48.5059ZM675.439 54.8779L674.442 54.8073L674.366 55.8779H675.439V54.8779ZM691.113 54.8779V55.8779H692.131L692.113 54.8602L691.113 54.8779ZM688.953 48.5059L688.216 49.1827L688.222 49.1886L688.953 48.5059ZM668.994 43.9282L668.257 43.2529L668.256 43.2532L668.994 43.9282ZM701.587 62.312V63.312H702.587V62.312H701.587ZM675.183 62.312V61.312H674.144L674.184 62.3504L675.183 62.312ZM699.28 69.1968H700.28V67.6227L698.855 68.2915L699.28 69.1968ZM699.28 77.8394L699.727 78.7338L700.28 78.4574V77.8394H699.28ZM693.018 80L692.813 79.0211L692.803 79.0233L693.018 80ZM683.313 45.2354C680.712 45.2354 678.564 46.0776 676.999 47.8422L678.495 49.1695C679.615 47.9068 681.177 47.2354 683.313 47.2354V45.2354ZM677.004 47.8362C675.464 49.544 674.647 51.9092 674.442 54.8073L676.437 54.9486C676.622 52.3291 677.344 50.4463 678.489 49.1755L677.004 47.8362ZM675.439 55.8779H691.113V53.8779H675.439V55.8779ZM692.113 54.8602C692.061 51.9426 691.296 49.5488 689.683 47.8231L688.222 49.1886C689.393 50.4414 690.067 52.2957 690.113 54.8956L692.113 54.8602ZM689.689 47.8291C688.078 46.0774 685.914 45.2354 683.313 45.2354V47.2354C685.448 47.2354 687.044 47.907 688.216 49.1827L689.689 47.8291ZM684.888 79.7324C678.484 79.7324 673.611 77.9704 670.134 74.5618L668.734 75.99C672.678 79.8567 678.108 81.7324 684.888 81.7324V79.7324ZM670.134 74.5618C666.665 71.1615 664.867 66.2979 664.867 59.8218H662.867C662.867 66.6757 664.78 72.1149 668.734 75.99L670.134 74.5618ZM664.867 59.8218C664.867 53.1214 666.535 48.0972 669.732 44.6033L668.256 43.2532C664.618 47.2299 662.867 52.8014 662.867 59.8218H664.867ZM669.732 44.6035C672.949 41.0895 677.408 39.2886 683.24 39.2886V37.2886C676.962 37.2886 671.924 39.2474 668.257 43.2529L669.732 44.6035ZM683.24 39.2886C688.829 39.2886 693.049 40.8745 696.038 43.9315L697.468 42.5333C694.012 38.9986 689.222 37.2886 683.24 37.2886V39.2886ZM696.038 43.9315C699.033 46.9951 700.587 51.2714 700.587 56.8921H702.587C702.587 50.8917 700.918 46.0616 697.468 42.5333L696.038 43.9315ZM700.587 56.8921V62.312H702.587V56.8921H700.587ZM701.587 61.312H675.183V63.312H701.587V61.312ZM674.184 62.3504C674.313 65.7041 675.315 68.4444 677.291 70.4483L678.715 69.0439C677.176 67.4833 676.298 65.2675 676.182 62.2736L674.184 62.3504ZM677.291 70.4483C679.284 72.4688 682.034 73.4194 685.4 73.4194V71.4194C682.419 71.4194 680.238 70.5878 678.715 69.0439L677.291 70.4483ZM685.4 73.4194C687.936 73.4194 690.344 73.1558 692.622 72.6242L692.168 70.6766C690.052 71.1703 687.797 71.4194 685.4 71.4194V73.4194ZM692.622 72.6242C694.898 72.0932 697.259 71.2499 699.705 70.102L698.855 68.2915C696.515 69.3898 694.287 70.1822 692.168 70.6766L692.622 72.6242ZM698.28 69.1968V77.8394H700.28V69.1968H698.28ZM698.833 76.9449C696.959 77.8815 694.954 78.5741 692.813 79.0211L693.222 80.9789C695.525 80.4981 697.694 79.7503 699.727 78.7338L698.833 76.9449ZM692.803 79.0233C690.674 79.4913 688.04 79.7324 684.888 79.7324V81.7324C688.131 81.7324 690.918 81.4853 693.232 80.9767L692.803 79.0233ZM737.292 38.6182L738.289 38.6983L738.359 37.8285L737.507 37.6414L737.292 38.6182ZM736.45 49.0918L736.189 50.0572L737.351 50.371L737.447 49.172L736.45 49.0918ZM724.805 51.4722L724.13 50.7343L724.125 50.7384L724.805 51.4722ZM721.838 80V81H722.838V80H721.838ZM710.669 80H709.669V81H710.669V80ZM710.669 39.0576V38.0576H709.669V39.0576H710.669ZM719.128 39.0576L720.101 38.8248L719.917 38.0576H719.128V39.0576ZM720.776 45.9424L719.804 46.1752L719.987 46.9424H720.776V45.9424ZM721.326 45.9424V46.9424H721.915L722.201 46.4264L721.326 45.9424ZM726.453 40.4126L726.996 41.2519L726.999 41.2504L726.453 40.4126ZM733.521 39.2886C734.993 39.2886 736.172 39.3961 737.078 39.5949L737.507 37.6414C736.411 37.4008 735.076 37.2886 733.521 37.2886V39.2886ZM736.296 38.538L735.453 49.0116L737.447 49.172L738.289 38.6983L736.296 38.538ZM736.711 48.1264C735.697 47.8524 734.505 47.7256 733.154 47.7256V49.7256C734.391 49.7256 735.396 49.8429 736.189 50.0572L736.711 48.1264ZM733.154 47.7256C729.42 47.7256 726.368 48.6873 724.13 50.7343L725.48 52.2101C727.245 50.5949 729.759 49.7256 733.154 49.7256V47.7256ZM724.125 50.7384C721.899 52.7998 720.838 55.655 720.838 59.1626H722.838C722.838 56.0784 723.755 53.8066 725.484 52.2059L724.125 50.7384ZM720.838 59.1626V80H722.838V59.1626H720.838ZM721.838 79H710.669V81H721.838V79ZM711.669 80V39.0576H709.669V80H711.669ZM710.669 40.0576H719.128V38.0576H710.669V40.0576ZM718.156 39.2904L719.804 46.1752L721.749 45.7096L720.101 38.8248L718.156 39.2904ZM720.776 46.9424H721.326V44.9424H720.776V46.9424ZM722.201 46.4264C723.393 44.2717 724.989 42.5519 726.996 41.2519L725.909 39.5733C723.619 41.0565 721.798 43.0232 720.451 45.4583L722.201 46.4264ZM726.999 41.2504C729.013 39.9378 731.18 39.2886 733.521 39.2886V37.2886C730.783 37.2886 728.238 38.0553 725.907 39.5748L726.999 41.2504Z" fill="white"/>
</g>
</g>
<defs>
<filter id="filter0_d" x="0" y="0" width="781" height="109.018" filterUnits="userSpaceOnUse" color-interpolation-filters="sRGB">
<feFlood flood-opacity="0" result="BackgroundImageFix"/>
<feColorMatrix in="SourceAlpha" type="matrix" values="0 0 0 0 0 0 0 0 0 0 0 0 0 0 0 0 0 0 127 0"/>
<feOffset dx="6" dy="6"/>
<feGaussianBlur stdDeviation="2"/>
<feColorMatrix type="matrix" values="0 0 0 0 0 0 0 0 0 0.00392157 0 0 0 0 0 0 0 0 0.6 0"/>
<feBlend mode="normal" in2="BackgroundImageFix" result="effect1_dropShadow"/>
<feBlend mode="normal" in="SourceGraphic" in2="effect1_dropShadow" result="shape"/>
</filter>
<filter id="filter1_d" x="2.44238" y="21.6147" width="745.917" height="87.4028" filterUnits="userSpaceOnUse" color-interpolation-filters="sRGB">
<feFlood flood-opacity="0" result="BackgroundImageFix"/>
<feColorMatrix in="SourceAlpha" type="matrix" values="0 0 0 0 0 0 0 0 0 0 0 0 0 0 0 0 0 0 127 0"/>
<feOffset dx="6" dy="6"/>
<feGaussianBlur stdDeviation="2"/>
<feColorMatrix type="matrix" values="0 0 0 0 0 0 0 0 0 0 0 0 0 0 0 0 0 0 0.6 0"/>
<feBlend mode="normal" in2="BackgroundImageFix" result="effect1_dropShadow"/>
<feBlend mode="normal" in="SourceGraphic" in2="effect1_dropShadow" result="shape"/>
</filter>
<linearGradient id="paint0_linear" x1="-28.8117" y1="23.0085" x2="724.555" y2="-6.49635" gradientUnits="userSpaceOnUse">
<stop stop-color="#6F449A"/>
<stop offset="0.223958" stop-color="#CF3B77"/>
<stop offset="0.567708" stop-color="#EDB038"/>
<stop offset="0.755208" stop-color="#CF3B77"/>
<stop offset="0.947917" stop-color="#6F449A"/>
</linearGradient>
</defs>
</svg>
