<svg width="59" height="58" viewBox="0 0 59 58" fill="none" xmlns="http://www.w3.org/2000/svg">
<g clip-path="url(#clip0)">
<path d="M43.3281 10.875H35.6458C35.6458 7.54268 32.8898 4.83337 29.5 4.83337C26.1102 4.83337 23.3542 7.54268 23.3542 10.875H15.6719C13.1271 10.875 11.0625 12.9047 11.0625 15.4063V48.6355C11.0625 51.1371 13.1271 53.1667 15.6719 53.1667H43.3281C45.8729 53.1667 47.9375 51.1371 47.9375 48.6355V15.4063C47.9375 12.9047 45.8729 10.875 43.3281 10.875ZM29.5 8.60942C30.7772 8.60942 31.8047 9.61951 31.8047 10.875C31.8047 12.1306 30.7772 13.1407 29.5 13.1407C28.2228 13.1407 27.1953 12.1306 27.1953 10.875C27.1953 9.61951 28.2228 8.60942 29.5 8.60942ZM43.3281 48.0691C43.3281 48.3806 43.0688 48.6355 42.752 48.6355H16.248C15.9312 48.6355 15.6719 48.3806 15.6719 48.0691V15.9727C15.6719 15.6612 15.9312 15.4063 16.248 15.4063H20.2812V18.8047C20.2812 19.4278 20.7998 19.9375 21.4336 19.9375H37.5664C38.2002 19.9375 38.7188 19.4278 38.7188 18.8047V15.4063H42.752C43.0688 15.4063 43.3281 15.6612 43.3281 15.9727V48.0691Z" fill="black"/>
</g>
<defs>
<clipPath id="clip0">
<rect width="59" height="58" fill="white"/>
</clipPath>
</defs>
</svg>
